General
Unique ID                                : 39127112955672833701408722313357207536 (0x1D6F9B9BEB18F5B284809C7026E2A7F0)
Complete name                            : Mortal.Engines.2018.UHD.BluRay.2160p.TrueHD.Atmos.7.1.DV.HEVC.REMUX-FraMeSToR.mkv
Format                                   : Matroska
Format version                           : Version 4
File size                                : 68.5 GiB
Duration                                 : 2 h 8 min
Overall bit rate mode                    : Variable
Overall bit rate                         : 76.4 Mb/s
Movie name                               : Mortal Engines (2018) DV
Encoded date                             : UTC 2021-02-08 14:14:30
Writing application                      : mkvmerge v53.0.0 ('Fool's Gold') 64-bit
Writing library                          : libebml v1.4.1 + libmatroska v1.6.2
IMDB                                     : tt1571234
TMDB                                     : movie/428078

Video
ID                                       : 1
ID in the original source medium         : 4113 (0x1011)
Format                                   : HEVC
Format/Info                              : High Efficiency Video Coding
Format profile                           : Main 10@L5.1@High
HDR format                               : Dolby Vision, Version 1.0, dvhe.07.06, BL+EL+RPU, Blu-ray compatible / SMPTE ST 2086, HDR10 compatible
Codec ID                                 : V_MPEGH/ISO/HEVC
Duration                                 : 2 h 8 min
Bit rate                                 : 70.1 Mb/s
Width                                    : 3 840 pixels
Height                                   : 2 160 pixels
Display aspect ratio                     : 16:9
Frame rate mode                          : Constant
Frame rate                               : 23.976 (24000/1001) FPS
Color space                              : YUV
Chroma subsampling                       : 4:2:0 (Type 2)
Bit depth                                : 10 bits
Bits/(Pixel*Frame)                       : 0.353
Stream size                              : 62.9 GiB (92%)
Default                                  : Yes
Forced                                   : No
Color range                              : Limited
Color primaries                          : BT.2020
Transfer characteristics                 : PQ
Matrix coefficients                      : BT.2020 non-constant
Mastering display color primaries        : Display P3
Mastering display luminance              : min: 0.0001 cd/m2, max: 1000 cd/m2
Maximum Content Light Level              : 1000 cd/m2
Maximum Frame-Average Light Level        : 921 cd/m2
Original source medium                   : Blu-ray

Audio #1
ID                                       : 2
Format                                   : MLP FBA 16-ch
Format/Info                              : Meridian Lossless Packing FBA with 16-channel presentation
Commercial name                          : Dolby TrueHD with Dolby Atmos
Codec ID                                 : A_TRUEHD
Duration                                 : 2 h 8 min
Bit rate mode                            : Variable
Bit rate                                 : 4 519 kb/s
Maximum bit rate                         : 7 425 kb/s
Channel(s)                               : 8 channels
Channel layout                           : L R C LFE Ls Rs Lb Rb
Sampling rate                            : 48.0 kHz
Frame rate                               : 1 200.000 FPS (40 SPF)
Compression mode                         : Lossless
Stream size                              : 4.05 GiB (6%)
Title                                    : TrueHD Atmos 7.1
Language                                 : English
Default                                  : Yes
Forced                                   : No
Number of dynamic objects                : 11
Bed channel count                        : 1 channel
Bed channel configuration                : LFE

Audio #2
ID                                       : 3
Format                                   : AC-3
Format/Info                              : Audio Coding 3
Commercial name                          : Dolby Digital
Codec ID                                 : A_AC3
Duration                                 : 2 h 8 min
Bit rate mode                            : Constant
Bit rate                                 : 448 kb/s
Channel(s)                               : 6 channels
Channel layout                           : L R C LFE Ls Rs
Sampling rate                            : 48.0 kHz
Frame rate                               : 31.250 FPS (1536 SPF)
Compression mode                         : Lossy
Stream size                              : 411 MiB (1%)
Title                                    : AC-3 5.1
Language                                 : English
Service kind                             : Complete Main
Default                                  : No
Forced                                   : No

Audio #3
ID                                       : 4
Format                                   : AC-3
Format/Info                              : Audio Coding 3
Commercial name                          : Dolby Digital
Codec ID                                 : A_AC3
Duration                                 : 2 h 8 min
Bit rate mode                            : Constant
Bit rate                                 : 192 kb/s
Channel(s)                               : 2 channels
Channel layout                           : L R
Sampling rate                            : 48.0 kHz
Frame rate                               : 31.250 FPS (1536 SPF)
Compression mode                         : Lossy
Stream size                              : 176 MiB (0%)
Title                                    : Commentary by Director Christian Rivers
Language                                 : English
Service kind                             : Complete Main
Default                                  : No
Forced                                   : No

Text #1
ID                                       : 5
Format                                   : PGS
Codec ID                                 : S_HDMV/PGS
Codec ID/Info                            : Picture based subtitle format used on BDs/HD-DVDs
Duration                                 : 1 h 57 min
Bit rate                                 : 32.9 kb/s
Count of elements                        : 2986
Stream size                              : 27.7 MiB (0%)
Title                                    : English (SDH)
Language                                 : English
Default                                  : No
Forced                                   : No

Text #2
ID                                       : 6
Format                                   : PGS
Codec ID                                 : S_HDMV/PGS
Codec ID/Info                            : Picture based subtitle format used on BDs/HD-DVDs
Duration                                 : 2 h 7 min
Bit rate                                 : 20.0 kb/s
Count of elements                        : 2068
Stream size                              : 18.3 MiB (0%)
Title                                    : Bulgarian
Language                                 : Bulgarian
Default                                  : No
Forced                                   : No

Text #3
ID                                       : 7
Format                                   : PGS
Codec ID                                 : S_HDMV/PGS
Codec ID/Info                            : Picture based subtitle format used on BDs/HD-DVDs
Duration                                 : 2 h 7 min
Bit rate                                 : 16.6 kb/s
Count of elements                        : 2478
Stream size                              : 15.2 MiB (0%)
Title                                    : Chinese (Cantonese)
Language                                 : Chinese
Default                                  : No
Forced                                   : No

Text #4
ID                                       : 8
Format                                   : PGS
Codec ID                                 : S_HDMV/PGS
Codec ID/Info                            : Picture based subtitle format used on BDs/HD-DVDs
Duration                                 : 2 h 7 min
Bit rate                                 : 19.8 kb/s
Count of elements                        : 2480
Stream size                              : 18.1 MiB (0%)
Title                                    : Chinese (Mandarin Simplified)
Language                                 : Chinese
Default                                  : No
Forced                                   : No

Text #5
ID                                       : 9
Format                                   : PGS
Codec ID                                 : S_HDMV/PGS
Codec ID/Info                            : Picture based subtitle format used on BDs/HD-DVDs
Duration                                 : 2 h 7 min
Bit rate                                 : 18.0 kb/s
Count of elements                        : 2485
Stream size                              : 16.5 MiB (0%)
Title                                    : Chinese (Mandarin Traditional)
Language                                 : Chinese
Default                                  : No
Forced                                   : No

Text #6
ID                                       : 10
Format                                   : PGS
Codec ID                                 : S_HDMV/PGS
Codec ID/Info                            : Picture based subtitle format used on BDs/HD-DVDs
Duration                                 : 2 h 7 min
Bit rate                                 : 19.3 kb/s
Count of elements                        : 2166
Stream size                              : 17.6 MiB (0%)
Title                                    : Croatian
Language                                 : Croatian
Default                                  : No
Forced                                   : No

Text #7
ID                                       : 11
Format                                   : PGS
Codec ID                                 : S_HDMV/PGS
Codec ID/Info                            : Picture based subtitle format used on BDs/HD-DVDs
Duration                                 : 2 h 8 min
Bit rate                                 : 19.4 kb/s
Count of elements                        : 1992
Stream size                              : 17.7 MiB (0%)
Title                                    : Czech
Language                                 : Czech
Default                                  : No
Forced                                   : No

Text #8
ID                                       : 12
Format                                   : PGS
Codec ID                                 : S_HDMV/PGS
Codec ID/Info                            : Picture based subtitle format used on BDs/HD-DVDs
Duration                                 : 2 h 7 min
Bit rate                                 : 21.2 kb/s
Count of elements                        : 1926
Stream size                              : 19.4 MiB (0%)
Title                                    : Danish
Language                                 : Danish
Default                                  : No
Forced                                   : No

Text #9
ID                                       : 13
Format                                   : PGS
Codec ID                                 : S_HDMV/PGS
Codec ID/Info                            : Picture based subtitle format used on BDs/HD-DVDs
Duration                                 : 2 h 7 min
Bit rate                                 : 20.5 kb/s
Count of elements                        : 1768
Stream size                              : 18.7 MiB (0%)
Title                                    : Dutch
Language                                 : Dutch
Default                                  : No
Forced                                   : No

Text #10
ID                                       : 14
Format                                   : PGS
Codec ID                                 : S_HDMV/PGS
Codec ID/Info                            : Picture based subtitle format used on BDs/HD-DVDs
Duration                                 : 2 h 7 min
Bit rate                                 : 19.8 kb/s
Count of elements                        : 2548
Stream size                              : 18.1 MiB (0%)
Title                                    : Estonian
Language                                 : Estonian
Default                                  : No
Forced                                   : No

Text #11
ID                                       : 15
Format                                   : PGS
Codec ID                                 : S_HDMV/PGS
Codec ID/Info                            : Picture based subtitle format used on BDs/HD-DVDs
Duration                                 : 2 h 7 min
Bit rate                                 : 19.7 kb/s
Count of elements                        : 2202
Stream size                              : 18.0 MiB (0%)
Title                                    : Finnish
Language                                 : Finnish
Default                                  : No
Forced                                   : No

Text #12
ID                                       : 16
Format                                   : PGS
Codec ID                                 : S_HDMV/PGS
Codec ID/Info                            : Picture based subtitle format used on BDs/HD-DVDs
Duration                                 : 2 h 7 min
Bit rate                                 : 21.9 kb/s
Count of elements                        : 2162
Stream size                              : 20.1 MiB (0%)
Title                                    : French (Canadian)
Language                                 : French
Default                                  : No
Forced                                   : No

Text #13
ID                                       : 17
Format                                   : PGS
Codec ID                                 : S_HDMV/PGS
Codec ID/Info                            : Picture based subtitle format used on BDs/HD-DVDs
Duration                                 : 2 h 7 min
Bit rate                                 : 19.1 kb/s
Count of elements                        : 2428
Stream size                              : 17.5 MiB (0%)
Title                                    : French (Parisian)
Language                                 : French
Default                                  : No
Forced                                   : No

Text #14
ID                                       : 18
Format                                   : PGS
Codec ID                                 : S_HDMV/PGS
Codec ID/Info                            : Picture based subtitle format used on BDs/HD-DVDs
Duration                                 : 2 h 7 min
Bit rate                                 : 23.4 kb/s
Count of elements                        : 2090
Stream size                              : 21.4 MiB (0%)
Title                                    : German
Language                                 : German
Default                                  : No
Forced                                   : No

Text #15
ID                                       : 19
Format                                   : PGS
Codec ID                                 : S_HDMV/PGS
Codec ID/Info                            : Picture based subtitle format used on BDs/HD-DVDs
Duration                                 : 2 h 7 min
Bit rate                                 : 24.9 kb/s
Count of elements                        : 2502
Stream size                              : 22.8 MiB (0%)
Title                                    : Greek
Language                                 : Greek
Default                                  : No
Forced                                   : No

Text #16
ID                                       : 20
Format                                   : PGS
Codec ID                                 : S_HDMV/PGS
Codec ID/Info                            : Picture based subtitle format used on BDs/HD-DVDs
Duration                                 : 2 h 7 min
Bit rate                                 : 22.0 kb/s
Count of elements                        : 2162
Stream size                              : 20.1 MiB (0%)
Title                                    : Hungarian
Language                                 : Hungarian
Default                                  : No
Forced                                   : No

Text #17
ID                                       : 21
Format                                   : PGS
Codec ID                                 : S_HDMV/PGS
Codec ID/Info                            : Picture based subtitle format used on BDs/HD-DVDs
Duration                                 : 2 h 7 min
Bit rate                                 : 21.5 kb/s
Count of elements                        : 2158
Stream size                              : 19.7 MiB (0%)
Title                                    : Icelandic
Language                                 : Icelandic
Default                                  : No
Forced                                   : No

Text #18
ID                                       : 22
Format                                   : PGS
Codec ID                                 : S_HDMV/PGS
Codec ID/Info                            : Picture based subtitle format used on BDs/HD-DVDs
Duration                                 : 2 h 7 min
Bit rate                                 : 22.7 kb/s
Count of elements                        : 2460
Stream size                              : 20.8 MiB (0%)
Title                                    : Indonesian
Language                                 : Indonesian
Default                                  : No
Forced                                   : No

Text #19
ID                                       : 23
Format                                   : PGS
Codec ID                                 : S_HDMV/PGS
Codec ID/Info                            : Picture based subtitle format used on BDs/HD-DVDs
Duration                                 : 2 h 7 min
Bit rate                                 : 21.1 kb/s
Count of elements                        : 2150
Stream size                              : 19.3 MiB (0%)
Title                                    : Italian
Language                                 : Italian
Default                                  : No
Forced                                   : No

Text #20
ID                                       : 24
Format                                   : PGS
Codec ID                                 : S_HDMV/PGS
Codec ID/Info                            : Picture based subtitle format used on BDs/HD-DVDs
Duration                                 : 2 h 7 min
Bit rate                                 : 14.5 kb/s
Count of elements                        : 2444
Stream size                              : 13.3 MiB (0%)
Title                                    : Korean
Language                                 : Korean
Default                                  : No
Forced                                   : No

Text #21
ID                                       : 25
Format                                   : PGS
Codec ID                                 : S_HDMV/PGS
Codec ID/Info                            : Picture based subtitle format used on BDs/HD-DVDs
Duration                                 : 2 h 7 min
Bit rate                                 : 19.7 kb/s
Count of elements                        : 2452
Stream size                              : 18.0 MiB (0%)
Title                                    : Lithuanian
Language                                 : Lithuanian
Default                                  : No
Forced                                   : No

Text #22
ID                                       : 26
Format                                   : PGS
Codec ID                                 : S_HDMV/PGS
Codec ID/Info                            : Picture based subtitle format used on BDs/HD-DVDs
Duration                                 : 2 h 7 min
Bit rate                                 : 19.0 kb/s
Count of elements                        : 2260
Stream size                              : 17.4 MiB (0%)
Title                                    : Norwegian
Language                                 : Norwegian
Default                                  : No
Forced                                   : No

Text #23
ID                                       : 27
Format                                   : PGS
Codec ID                                 : S_HDMV/PGS
Codec ID/Info                            : Picture based subtitle format used on BDs/HD-DVDs
Duration                                 : 2 h 7 min
Bit rate                                 : 20.6 kb/s
Count of elements                        : 2232
Stream size                              : 18.9 MiB (0%)
Title                                    : Polish
Language                                 : Polish
Default                                  : No
Forced                                   : No

Text #24
ID                                       : 28
Format                                   : PGS
Codec ID                                 : S_HDMV/PGS
Codec ID/Info                            : Picture based subtitle format used on BDs/HD-DVDs
Duration                                 : 2 h 7 min
Bit rate                                 : 22.4 kb/s
Count of elements                        : 2502
Stream size                              : 20.5 MiB (0%)
Title                                    : Portuguese (Brazilan)
Default                                  : No
Forced                                   : No

Text #25
ID                                       : 29
Format                                   : PGS
Codec ID                                 : S_HDMV/PGS
Codec ID/Info                            : Picture based subtitle format used on BDs/HD-DVDs
Duration                                 : 2 h 8 min
Bit rate                                 : 22.9 kb/s
Count of elements                        : 2290
Stream size                              : 21.0 MiB (0%)
Title                                    : Portuguese (Iberian)
Default                                  : No
Forced                                   : No

Text #26
ID                                       : 30
Format                                   : PGS
Codec ID                                 : S_HDMV/PGS
Codec ID/Info                            : Picture based subtitle format used on BDs/HD-DVDs
Duration                                 : 2 h 8 min
Bit rate                                 : 21.0 kb/s
Count of elements                        : 2296
Stream size                              : 19.2 MiB (0%)
Title                                    : Romanian
Language                                 : Romanian
Default                                  : No
Forced                                   : No

Text #27
ID                                       : 31
Format                                   : PGS
Codec ID                                 : S_HDMV/PGS
Codec ID/Info                            : Picture based subtitle format used on BDs/HD-DVDs
Duration                                 : 2 h 7 min
Bit rate                                 : 25.9 kb/s
Count of elements                        : 2599
Stream size                              : 23.7 MiB (0%)
Title                                    : Rusian
Default                                  : No
Forced                                   : No

Text #28
ID                                       : 32
Format                                   : PGS
Codec ID                                 : S_HDMV/PGS
Codec ID/Info                            : Picture based subtitle format used on BDs/HD-DVDs
Duration                                 : 2 h 7 min
Bit rate                                 : 20.5 kb/s
Count of elements                        : 2164
Stream size                              : 18.7 MiB (0%)
Title                                    : Slovenian
Language                                 : Slovenian
Default                                  : No
Forced                                   : No

Text #29
ID                                       : 33
Format                                   : PGS
Codec ID                                 : S_HDMV/PGS
Codec ID/Info                            : Picture based subtitle format used on BDs/HD-DVDs
Duration                                 : 2 h 7 min
Bit rate                                 : 21.9 kb/s
Count of elements                        : 2400
Stream size                              : 20.0 MiB (0%)
Title                                    : Spanish (Castilian)
Language                                 : Spanish
Default                                  : No
Forced                                   : No

Text #30
ID                                       : 34
Format                                   : PGS
Codec ID                                 : S_HDMV/PGS
Codec ID/Info                            : Picture based subtitle format used on BDs/HD-DVDs
Duration                                 : 2 h 7 min
Bit rate                                 : 23.3 kb/s
Count of elements                        : 2486
Stream size                              : 21.3 MiB (0%)
Title                                    : Spanish (Latin American)
Language                                 : Spanish
Default                                  : No
Forced                                   : No

Text #31
ID                                       : 35
Format                                   : PGS
Codec ID                                 : S_HDMV/PGS
Codec ID/Info                            : Picture based subtitle format used on BDs/HD-DVDs
Duration                                 : 2 h 7 min
Bit rate                                 : 21.5 kb/s
Count of elements                        : 2076
Stream size                              : 19.7 MiB (0%)
Title                                    : Sweden
Language                                 : Swedish
Default                                  : No
Forced                                   : No

Text #32
ID                                       : 36
Format                                   : PGS
Codec ID                                 : S_HDMV/PGS
Codec ID/Info                            : Picture based subtitle format used on BDs/HD-DVDs
Duration                                 : 2 h 7 min
Bit rate                                 : 19.0 kb/s
Count of elements                        : 2166
Stream size                              : 17.4 MiB (0%)
Title                                    : Thai
Language                                 : Thai
Default                                  : No
Forced                                   : No

Text #33
ID                                       : 37
Format                                   : PGS
Codec ID                                 : S_HDMV/PGS
Codec ID/Info                            : Picture based subtitle format used on BDs/HD-DVDs
Duration                                 : 2 h 7 min
Bit rate                                 : 23.1 kb/s
Count of elements                        : 2470
Stream size                              : 21.2 MiB (0%)
Title                                    : Turkish
Language                                 : Turkish
Default                                  : No
Forced                                   : No

Text #34
ID                                       : 38
Format                                   : PGS
Codec ID                                 : S_HDMV/PGS
Codec ID/Info                            : Picture based subtitle format used on BDs/HD-DVDs
Duration                                 : 1 h 58 min
Bit rate                                 : 63.3 kb/s
Count of elements                        : 3771
Stream size                              : 53.8 MiB (0%)
Title                                    : English (Commentary #1)
Language                                 : English
Default                                  : No
Forced                                   : No

Text #35
ID                                       : 39
Format                                   : PGS
Codec ID                                 : S_HDMV/PGS
Codec ID/Info                            : Picture based subtitle format used on BDs/HD-DVDs
Duration                                 : 2 h 8 min
Bit rate                                 : 39.6 kb/s
Count of elements                        : 3779
Stream size                              : 36.3 MiB (0%)
Title                                    : Chinese (Mandarin Simplified) (Commentary #1)
Language                                 : Chinese
Default                                  : No
Forced                                   : No

Text #36
ID                                       : 40
Format                                   : PGS
Codec ID                                 : S_HDMV/PGS
Codec ID/Info                            : Picture based subtitle format used on BDs/HD-DVDs
Duration                                 : 2 h 8 min
Bit rate                                 : 51.5 kb/s
Count of elements                        : 3773
Stream size                              : 47.2 MiB (0%)
Title                                    : German (Commentary #1)
Language                                 : German
Default                                  : No
Forced                                   : No

Text #37
ID                                       : 41
Format                                   : PGS
Codec ID                                 : S_HDMV/PGS
Codec ID/Info                            : Picture based subtitle format used on BDs/HD-DVDs
Duration                                 : 2 h 8 min
Bit rate                                 : 47.4 kb/s
Count of elements                        : 3721
Stream size                              : 43.5 MiB (0%)
Title                                    : French (Parisian) (Commentary #1)
Language                                 : French
Default                                  : No
Forced                                   : No

Text #38
ID                                       : 42
Format                                   : PGS
Codec ID                                 : S_HDMV/PGS
Codec ID/Info                            : Picture based subtitle format used on BDs/HD-DVDs
Duration                                 : 2 h 8 min
Bit rate                                 : 52.1 kb/s
Count of elements                        : 3767
Stream size                              : 47.8 MiB (0%)
Title                                    : Italian (Commentary #1)
Language                                 : Italian
Default                                  : No
Forced                                   : No

Text #39
ID                                       : 43
Format                                   : PGS
Codec ID                                 : S_HDMV/PGS
Codec ID/Info                            : Picture based subtitle format used on BDs/HD-DVDs
Duration                                 : 2 h 8 min
Bit rate                                 : 34.4 kb/s
Count of elements                        : 3777
Stream size                              : 31.5 MiB (0%)
Title                                    : Korean (Commentary #1)
Language                                 : Korean
Default                                  : No
Forced                                   : No

Text #40
ID                                       : 44
Format                                   : PGS
Codec ID                                 : S_HDMV/PGS
Codec ID/Info                            : Picture based subtitle format used on BDs/HD-DVDs
Duration                                 : 2 h 8 min
Bit rate                                 : 50.5 kb/s
Count of elements                        : 3771
Stream size                              : 46.3 MiB (0%)
Title                                    : Spanish (Castilian) (Commentary #1)
Default                                  : No
Forced                                   : No

Menu
00:00:00.000                             : en:Chapter 1
00:09:24.397                             : en:Chapter 2
00:16:13.306                             : en:Chapter 3
00:24:20.626                             : en:Chapter 4
00:31:24.591                             : en:Chapter 5
00:35:53.068                             : en:Chapter 6
00:41:27.819                             : en:Chapter 7
00:44:53.816                             : en:Chapter 8
00:50:16.805                             : en:Chapter 9
00:54:21.175                             : en:Chapter 10
01:00:51.398                             : en:Chapter 11
01:07:12.070                             : en:Chapter 12
01:11:12.852                             : en:Chapter 13
01:17:37.736                             : en:Chapter 14
01:25:25.620                             : en:Chapter 15
01:33:30.396                             : en:Chapter 16
01:39:28.546                             : en:Chapter 17
01:47:58.263                             : en:Chapter 18
01:52:11.558                             : en:Chapter 19
01:58:33.523                             : en:Chapter 20
